REM DIRINDEX 1\2,1\3,1\4,1\5
REM DIRNAME folder01,folder02,folder03,folder04,folder05
TITLE ""
FILE "1Q_t_0890-0899.mp3" MP3
  TRACK 01 AUDIO
    TITLE "3:cjc004_3573"
    INDEX 01 00:00:00
  TRACK 02 AUDIO
    TITLE "0:"
    INDEX 01 00:00:72
  TRACK 03 AUDIO
    TITLE "4:cjc004_3574"
    INDEX 01 00:01:26
  TRACK 04 AUDIO
    TITLE "0:"
    INDEX 01 00:02:30
  TRACK 05 AUDIO
    TITLE "5:cjc004_3575"
    INDEX 01 00:02:51
  TRACK 06 AUDIO
    TITLE "0:"
    INDEX 01 00:07:05
  TRACK 07 AUDIO
    TITLE "3:cjc004_3576"
    INDEX 01 00:07:56
  TRACK 08 AUDIO
    TITLE "0:"
    INDEX 01 00:09:00
  TRACK 09 AUDIO
    TITLE "4:cjc004_3577"
    INDEX 01 00:09:28
  TRACK 10 AUDIO
    TITLE "0:"
    INDEX 01 00:10:39
  TRACK 11 AUDIO
    TITLE "5:cjc004_3578"
    INDEX 01 00:10:68
  TRACK 12 AUDIO
    TITLE "0:"
    INDEX 01 00:14:64
  TRACK 13 AUDIO
    TITLE "3:cjc004_3579"
    INDEX 01 00:15:42
  TRACK 14 AUDIO
    TITLE "0:"
    INDEX 01 00:16:55
  TRACK 15 AUDIO
    TITLE "4:cjc004_3580"
    INDEX 01 00:17:06
  TRACK 16 AUDIO
    TITLE "0:"
    INDEX 01 00:18:05
  TRACK 17 AUDIO
    TITLE "5:cjc004_3581"
    INDEX 01 00:18:33
  TRACK 18 AUDIO
    TITLE "0:"
    INDEX 01 00:22:52
  TRACK 19 AUDIO
    TITLE "3:cjc004_3582"
    INDEX 01 00:23:40
  TRACK 20 AUDIO
    TITLE "0:"
    INDEX 01 00:24:49
  TRACK 21 AUDIO
    TITLE "4:cjc004_3583"
    INDEX 01 00:24:74
  TRACK 22 AUDIO
    TITLE "0:"
    INDEX 01 00:27:12
  TRACK 23 AUDIO
    TITLE "5:cjc004_3584"
    INDEX 01 00:27:36
  TRACK 24 AUDIO
    TITLE "0:"
    INDEX 01 00:32:72
  TRACK 25 AUDIO
    TITLE "3:cjc004_3585"
    INDEX 01 00:33:50
  TRACK 26 AUDIO
    TITLE "0:"
    INDEX 01 00:34:57
  TRACK 27 AUDIO
    TITLE "4:cjc004_3586"
    INDEX 01 00:35:14
  TRACK 28 AUDIO
    TITLE "0:"
    INDEX 01 00:36:25
  TRACK 29 AUDIO
    TITLE "5:cjc004_3587"
    INDEX 01 00:36:48
  TRACK 30 AUDIO
    TITLE "0:"
    INDEX 01 00:41:16
  TRACK 31 AUDIO
    TITLE "3:cjc004_3588"
    INDEX 01 00:41:71
  TRACK 32 AUDIO
    TITLE "0:"
    INDEX 01 00:43:25
  TRACK 33 AUDIO
    TITLE "4:cjc004_3589"
    INDEX 01 00:43:58
  TRACK 34 AUDIO
    TITLE "0:"
    INDEX 01 00:45:10
  TRACK 35 AUDIO
    TITLE "5:cjc004_3590"
    INDEX 01 00:45:37
  TRACK 36 AUDIO
    TITLE "0:"
    INDEX 01 00:51:24
  TRACK 37 AUDIO
    TITLE "3:cjc004_3591"
    INDEX 01 00:52:08
  TRACK 38 AUDIO
    TITLE "0:"
    INDEX 01 00:53:19
  TRACK 39 AUDIO
    TITLE "4:cjc004_3592"
    INDEX 01 00:53:49
  TRACK 40 AUDIO
    TITLE "0:"
    INDEX 01 00:54:60
  TRACK 41 AUDIO
    TITLE "5:cjc004_3593"
    INDEX 01 00:55:12
  TRACK 42 AUDIO
    TITLE "0:"
    INDEX 01 01:00:43
  TRACK 43 AUDIO
    TITLE "3:cjc004_3594"
    INDEX 01 01:01:19
  TRACK 44 AUDIO
    TITLE "0:"
    INDEX 01 01:02:22
  TRACK 45 AUDIO
    TITLE "4:cjc004_3595"
    INDEX 01 01:02:55
  TRACK 46 AUDIO
    TITLE "0:"
    INDEX 01 01:03:63
  TRACK 47 AUDIO
    TITLE "5:cjc004_3596"
    INDEX 01 01:04:13
  TRACK 48 AUDIO
    TITLE "0:"
    INDEX 01 01:08:72
  TRACK 49 AUDIO
    TITLE "3:cjc004_3597"
    INDEX 01 01:09:50
  TRACK 50 AUDIO
    TITLE "0:"
    INDEX 01 01:10:55
  TRACK 51 AUDIO
    TITLE "4:cjc004_3598"
    INDEX 01 01:11:05
  TRACK 52 AUDIO
    TITLE "0:"
    INDEX 01 01:12:58
  TRACK 53 AUDIO
    TITLE "5:cjc004_3599"
    INDEX 01 01:13:06
  TRACK 54 AUDIO
    TITLE "0:"
    INDEX 01 01:18:45
  TRACK 55 AUDIO
    TITLE "3:cjc004_3600"
    INDEX 01 01:19:23
  TRACK 56 AUDIO
    TITLE "0:"
    INDEX 01 01:20:18
  TRACK 57 AUDIO
    TITLE "4:cjc004_3601"
    INDEX 01 01:20:46
  TRACK 58 AUDIO
    TITLE "0:"
    INDEX 01 01:22:07
  TRACK 59 AUDIO
    TITLE "5:cjc004_3602"
    INDEX 01 01:22:31
  TRACK 60 AUDIO
    TITLE "0:"
    INDEX 01 01:26:64
